# xmcd
#
# Track frame offsets: 
#        150
#        21835
#        35945
#        49772
#        60215
#        75272
#        86690
#        106167
#        117610
#        133432
#        143305
#        156745
#        167382
#        179455
#        189877
#
# Disc length: 2655 seconds
#
# Revision: 0
# Processed by: cddbd v1.5.2PL0 Copyright (c) Steve Scherf et al.
# Submitted via: ExactAudioCopyFreeDBPlugin 1.0
#
DISCID=c30a5d0f
DTITLE=Bob Riedy Chicago Blues Band - Lake Michigan Ain't No River
DYEAR=2004
DGENRE=Blues
TTITLE0=Carey Bell - My Eyes (Keep Me In Trouble)
TTITLE1=Jimmy Rogers - House Rocker
TTITLE2=Jimmy Rogers - Walking By Myself
TTITLE3=Jimmy Rogers - Slick Chick
TTITLE4=Jimmy Rogers - Sloppy Drunk
TTITLE5=Richard 'Hub Cap' Robinson - Keep On Looking
TTITLE6=Richard 'Hub Cap' Robinson - Have You Ever
TTITLE7=John Littlejohn - Dust My Broom
TTITLE8=John Littlejohn - Reconsider Baby
TTITLE9=John Littlejohn - It's Love Baby (24 Hours A Day)
TTITLE10=Back At The Chicken Shack
TTITLE11=Johnny Young - Mandolin Boogie
TTITLE12=Johnny Young - Why Did You Break My Heart
TTITLE13=Johnny Young - Johnny's Jump
TTITLE14=Pig Ear Rag
EXTD=
EXTT0=
EXTT1=
EXTT2=
EXTT3=
EXTT4=
EXTT5=
EXTT6=
EXTT7=
EXTT8=
EXTT9=
EXTT10=
EXTT11=
EXTT12=
EXTT13=
EXTT14=
PLAYORDER=
